<svg width="489" height="465" viewBox="0 0 489 465" fill="none" xmlns="http://www.w3.org/2000/svg">
<path d="M126.379 364.864C122.801 361.415 120.457 357.152 120.547 351.68C120.624 346.768 124.316 341.709 129.227 341.523C136.148 341.259 140.224 348.484 142.58 353.969C144.9 359.368 146.885 364.919 148.859 370.451C149.527 372.323 150.187 374.2 150.84 376.079C150.94 376.368 151.299 378.137 151.595 378.269C144.12 374.931 133.083 371.328 126.379 364.864Z" fill="#5A6C51"/>
<path d="M227.743 434.655L227.521 434.616C206.608 427.264 185.949 413.809 166.12 394.628C161.045 389.722 156.019 384.467 150.755 378.561C140.652 367.252 131.257 355.311 123.244 345.004C123.017 344.713 123.069 344.295 123.361 344.069C123.649 343.841 124.069 343.893 124.296 344.187C132.296 354.475 141.673 366.395 151.749 377.673C156.992 383.555 161.996 388.786 167.048 393.669C186.737 412.716 207.232 426.069 227.964 433.359C228.312 433.481 228.495 433.861 228.372 434.209C228.276 434.483 228.017 434.655 227.743 434.655Z" fill="#4A5843"/>
<path d="M151.717 367.471C150.673 362.613 151.105 357.768 154.229 353.275C157.036 349.243 162.92 347.103 167.1 349.687C172.992 353.328 172.344 361.599 171.241 367.465C170.156 373.24 168.708 378.955 167.26 384.648C166.769 386.575 166.272 388.5 165.764 390.422C165.685 390.719 164.997 392.388 165.169 392.661C160.829 385.722 153.676 376.576 151.717 367.471Z" fill="#5A6C51"/>
<path d="M164.96 393.005C164.633 393.005 164.346 392.764 164.301 392.431C162.237 377.472 161.148 362.907 160.209 349.271C160.184 348.904 160.461 348.587 160.829 348.56C161.181 348.517 161.513 348.813 161.54 349.18C162.477 362.792 163.564 377.331 165.621 392.248C165.673 392.612 165.417 392.949 165.053 392.998L164.96 393.005Z" fill="#4A5843"/>
<path d="M134.965 397.741C129.999 397.727 125.356 396.271 121.632 392.26C118.289 388.659 117.453 382.453 120.869 378.921C125.683 373.94 133.625 376.336 139.121 378.664C144.533 380.956 149.807 383.589 155.061 386.217C156.84 387.107 158.615 388.004 160.385 388.909C160.657 389.048 162.141 390.079 162.447 389.969C154.74 392.729 144.28 397.768 134.965 397.741Z" fill="#5A6C51"/>
<path d="M162.087 390.768L162.033 390.767C146.989 389.596 132.521 387.555 118.995 385.565C118.629 385.51 118.377 385.172 118.431 384.808C118.485 384.443 118.817 384.204 119.188 384.245C132.693 386.232 147.135 388.268 162.137 389.437C162.505 389.465 162.779 389.786 162.749 390.155C162.724 390.503 162.431 390.768 162.087 390.768Z" fill="#4A5843"/>
<path d="M158.949 418.777C153.981 418.764 149.34 417.308 145.616 413.297C142.273 409.697 141.437 403.489 144.852 399.957C149.668 394.977 157.609 397.373 163.105 399.701C168.516 401.993 173.791 404.626 179.044 407.255C180.823 408.144 182.597 409.043 184.368 409.947C184.64 410.086 186.124 411.114 186.429 411.005C178.724 413.768 168.264 418.805 158.949 418.777Z" fill="#5A6C51"/>
<path d="M186.069 411.807L186.016 411.804C170.939 410.629 156.487 408.589 142.976 406.601C142.613 406.547 142.36 406.209 142.413 405.844C142.468 405.481 142.799 405.238 143.172 405.281C156.659 407.268 171.084 409.303 186.12 410.476C186.488 410.504 186.761 410.824 186.732 411.192C186.707 411.541 186.413 411.807 186.069 411.807Z" fill="#4A5843"/>
<path d="M185.835 438.72C180.912 439.391 176.115 438.591 171.872 435.132C168.064 432.028 166.38 425.996 169.275 422.026C173.355 416.429 181.552 417.705 187.317 419.252C192.993 420.774 198.58 422.656 204.147 424.533C206.031 425.168 207.912 425.812 209.791 426.464C210.08 426.564 211.692 427.379 211.979 427.228C204.729 431.026 195.063 437.461 185.835 438.72Z" fill="#5A6C51"/>
<path d="M179.469 428.915C175.696 428.915 171.983 428.892 168.335 428.865C167.965 428.863 167.671 428.561 167.673 428.193C167.675 427.827 167.973 427.532 168.34 427.532H168.344C181.987 427.633 196.565 427.659 211.6 426.745C211.959 426.705 212.284 427.003 212.305 427.371C212.328 427.737 212.048 428.053 211.68 428.076C200.628 428.748 189.831 428.915 179.469 428.915Z" fill="#4A5843"/>
<path d="M173.403 386.563C172.357 381.707 172.789 376.86 175.915 372.368C178.721 368.333 184.607 366.195 188.785 368.777C194.677 372.42 194.029 380.691 192.927 386.556C191.84 392.332 190.393 398.045 188.945 403.74C188.455 405.667 187.956 407.592 187.451 409.515C187.372 409.81 186.681 411.48 186.853 411.755C182.513 404.815 175.361 395.668 173.403 386.563Z" fill="#5A6C51"/>
<path d="M186.645 412.098C186.319 412.098 186.032 411.856 185.987 411.522C183.923 396.56 182.833 381.996 181.895 368.363C181.869 367.995 182.147 367.677 182.513 367.652C182.869 367.611 183.199 367.903 183.225 368.271C184.163 381.881 185.248 396.42 187.307 411.34C187.357 411.705 187.103 412.043 186.737 412.092L186.645 412.098Z" fill="#4A5843"/>
<path d="M194.737 400.273C193.692 395.417 194.125 390.572 197.251 386.08C200.056 382.045 205.941 379.907 210.12 382.489C216.012 386.132 215.365 394.403 214.261 400.268C213.175 406.045 211.728 411.759 210.28 417.451C209.789 419.379 209.291 421.304 208.785 423.227C208.707 423.522 208.017 425.192 208.188 425.467C203.848 418.527 196.696 409.38 194.737 400.273Z" fill="#5A6C51"/>
<path d="M207.981 425.809C207.655 425.809 207.368 425.567 207.323 425.233C205.256 410.255 204.168 395.7 203.229 382.075C203.204 381.708 203.481 381.389 203.848 381.364C204.212 381.323 204.533 381.616 204.56 381.984C205.496 395.585 206.583 410.115 208.643 425.051C208.693 425.416 208.439 425.753 208.073 425.803L207.981 425.809Z" fill="#4A5843"/>
<path d="M480.401 375.044C483.979 371.595 486.323 367.331 486.233 361.86C486.156 356.947 482.464 351.888 477.555 351.703C470.632 351.437 466.557 358.663 464.2 364.149C461.881 369.547 459.896 375.099 457.921 380.631C457.253 382.503 456.593 384.379 455.943 386.259C455.841 386.547 455.483 388.317 455.187 388.449C462.66 385.109 473.697 381.508 480.401 375.044Z" fill="#4A5843"/>
<path d="M379.037 444.833C378.763 444.833 378.505 444.661 378.408 444.388C378.285 444.041 378.468 443.66 378.816 443.538C399.549 436.249 420.044 422.895 439.732 403.849C444.783 398.968 449.785 393.736 455.031 387.853C465.116 376.563 474.489 364.648 482.484 354.367C482.711 354.075 483.129 354.023 483.419 354.249C483.711 354.475 483.763 354.893 483.536 355.184C475.528 365.484 466.137 377.42 456.025 388.741C450.76 394.648 445.732 399.903 440.66 404.808C420.832 423.989 400.173 437.441 379.259 444.796L379.037 444.833Z" fill="#5A6C51"/>
<path d="M455.063 377.651C456.109 372.793 455.674 367.948 452.55 363.455C449.745 359.423 443.86 357.283 439.68 359.867C433.788 363.508 434.436 371.777 435.54 377.645C436.625 383.42 438.073 389.135 439.521 394.827C440.011 396.755 440.509 398.68 441.016 400.601C441.095 400.898 441.784 402.568 441.612 402.841C445.952 395.903 453.105 386.756 455.063 377.651Z" fill="#4A5843"/>
<path d="M441.82 403.185L441.728 403.179C441.363 403.129 441.108 402.792 441.159 402.428C443.216 387.51 444.303 372.972 445.24 359.36C445.267 358.992 445.58 358.703 445.952 358.74C446.319 358.767 446.596 359.084 446.57 359.451C445.632 373.087 444.543 387.652 442.479 402.609C442.433 402.943 442.147 403.185 441.82 403.185Z" fill="#5A6C51"/>
<path d="M471.815 407.921C476.784 407.907 481.425 406.45 485.148 402.438C488.491 398.838 489.327 392.633 485.912 389.101C481.097 384.12 473.156 386.516 467.659 388.844C462.247 391.136 456.973 393.768 451.72 396.397C449.941 397.286 448.168 398.184 446.396 399.089C446.123 399.228 444.64 400.259 444.336 400.149C452.04 402.909 462.501 407.948 471.815 407.921Z" fill="#4A5843"/>
<path d="M444.693 400.948C444.349 400.948 444.057 400.683 444.031 400.333C444.003 399.967 444.276 399.645 444.643 399.617C459.648 398.448 474.088 396.412 487.591 394.425C487.959 394.384 488.295 394.624 488.348 394.988C488.401 395.352 488.149 395.691 487.785 395.745C474.259 397.734 459.793 399.775 444.747 400.945L444.693 400.948Z" fill="#5A6C51"/>
<path d="M447.832 428.957C452.799 428.943 457.441 427.488 461.165 423.477C464.507 419.877 465.343 413.669 461.928 410.137C457.115 405.156 449.172 407.552 443.675 409.88C438.264 412.173 432.991 414.807 427.736 417.434C425.957 418.322 424.183 419.221 422.412 420.126C422.14 420.267 420.656 421.295 420.351 421.185C428.057 423.947 438.517 428.985 447.832 428.957Z" fill="#4A5843"/>
<path d="M420.711 421.986C420.367 421.986 420.073 421.72 420.048 421.372C420.019 421.004 420.292 420.684 420.66 420.656C435.696 419.483 450.121 417.447 463.608 415.461C463.977 415.42 464.311 415.659 464.365 416.024C464.419 416.388 464.167 416.726 463.803 416.781C450.292 418.768 435.84 420.809 420.764 421.984L420.711 421.986Z" fill="#5A6C51"/>
<path d="M420.947 448.9C425.868 449.571 430.667 448.769 434.908 445.312C438.716 442.208 440.4 436.176 437.507 432.207C433.425 426.608 425.229 427.884 419.463 429.432C413.787 430.955 408.2 432.835 402.633 434.712C400.749 435.348 398.868 435.991 396.991 436.644C396.7 436.744 395.089 437.559 394.801 437.408C402.053 441.207 411.717 447.641 420.947 448.9Z" fill="#4A5843"/>
<path d="M433.379 396.743C434.423 391.885 433.991 387.04 430.865 382.547C428.06 378.513 422.175 376.375 417.996 378.957C412.104 382.6 412.751 390.871 413.853 396.736C414.94 402.512 416.388 408.225 417.836 413.919C418.327 415.847 418.825 417.771 419.332 419.695C419.409 419.989 420.099 421.659 419.927 421.934C424.267 414.993 431.419 405.848 433.379 396.743Z" fill="#4A5843"/>
<path d="M420.133 422.277L420.041 422.271C419.676 422.221 419.421 421.884 419.472 421.52C421.532 406.581 422.619 392.052 423.556 378.451C423.581 378.084 423.907 377.796 424.267 377.831C424.633 377.857 424.911 378.175 424.887 378.543C423.948 392.167 422.859 406.721 420.792 421.703C420.747 422.036 420.46 422.277 420.133 422.277Z" fill="#5A6C51"/>
<path d="M412.044 410.453C413.088 405.597 412.656 400.752 409.531 396.26C406.725 392.225 400.84 390.086 396.661 392.669C390.769 396.312 391.416 404.583 392.519 410.448C393.605 416.224 395.053 421.937 396.501 427.631C396.991 429.557 397.489 431.484 397.997 433.407C398.075 433.703 398.764 435.372 398.592 435.646C402.932 428.707 410.084 419.56 412.044 410.453Z" fill="#4A5843"/>
<path d="M398.799 435.989L398.707 435.983C398.341 435.933 398.087 435.596 398.137 435.231C400.193 420.325 401.283 405.781 402.221 392.162C402.247 391.796 402.564 391.505 402.932 391.544C403.299 391.569 403.576 391.886 403.552 392.255C402.611 405.897 401.52 420.467 399.457 435.414C399.412 435.747 399.125 435.989 398.799 435.989Z" fill="#5A6C51"/>
<path d="M450.28 293.653C449.613 297.613 447.693 301.24 445.655 304.693C439.268 315.493 431.388 325.427 422.307 334.093C424.495 332.4 427.467 332.747 429.815 334.212C430.201 334.453 430.573 334.733 430.92 335.053C431.041 335.133 431.161 335.253 431.281 335.36C433.708 337.733 434.561 341.36 434.24 344.733C433.92 348.107 432.56 351.293 431.067 354.333C424.935 366.867 416.36 378.2 405.948 387.507C409.161 385.64 413.56 386 416.721 387.932C417.775 388.573 418.68 389.4 419.428 390.373C419.721 390.733 419.988 391.12 420.215 391.533C421.24 393.267 421.787 395.293 421.68 397.307C421.388 402.853 416.881 407.12 412.68 410.76C402.601 419.507 390.973 431.133 380.895 439.879C380.413 439.813 379.948 439.76 379.467 439.693C379.001 439.627 378.548 439.573 378.08 439.507C376.293 439.265 374.507 439.027 372.708 438.786C373.281 424.614 374.293 409.947 374.868 395.76C375.013 392.014 375.187 388.16 376.68 384.72C378.173 381.293 381.307 378.293 385.055 378.107C385.253 378.093 385.441 378.093 385.64 378.107C386.108 378.12 386.573 378.2 387.013 378.333C389.721 379.093 391.988 381.587 391.868 384.28C393.52 371.599 393.413 359.387 391.173 346.773C390.548 343.24 389.761 339.72 389.733 336.133C389.708 332.56 390.52 328.853 392.747 326.04C394.467 323.867 397.173 322.373 399.895 322.28C400.375 322.267 400.84 322.293 401.293 322.36C401.615 322.413 401.935 322.48 402.24 322.573C405.095 323.4 407.227 326.387 407.055 329.253C409.388 318.879 409.92 308.28 406.815 298.107C405.627 294.227 404.055 290.4 403.84 286.36C403.64 282.307 405.161 277.84 408.721 275.92C409.587 275.44 410.587 275.212 411.601 275.2C412.095 275.187 412.587 275.227 413.067 275.333C415.601 275.8 417.853 277.573 418.027 280.133C420.733 269.827 419.988 259.04 415.413 249.413C413.535 245.453 411.095 241.773 409.64 237.64C408.187 233.52 407.853 228.693 410.148 224.96C410.428 224.52 410.747 224.093 411.108 223.707C411.413 223.373 411.747 223.067 412.108 222.787C414.8 220.653 418.733 220.013 421.428 222.08C421.761 210.56 411.001 201.747 408.868 190.427C408.413 188.027 408.36 185.48 409.228 183.2C409.668 182.053 410.375 180.973 411.268 180.133C411.601 179.827 411.948 179.547 412.335 179.307C412.96 178.907 413.655 178.613 414.4 178.467C416.828 177.973 419.36 179.067 421.161 180.773C422.947 182.48 424.12 184.733 425.161 186.973C430.001 197.44 432.721 208.893 433.08 220.44C433.12 217.387 437.587 215.747 440.721 215.947L440.935 215.973C441.4 216.013 441.853 216.107 442.293 216.24C444.815 216.987 446.895 219.093 448.041 221.493C449.428 224.4 449.68 227.693 449.747 230.907C450.08 248.265 445.293 265.693 436.133 280.453C439.027 278.08 443.881 279.333 446.775 281.867C446.988 282.04 447.187 282.227 447.375 282.427C447.52 282.587 447.667 282.747 447.8 282.907C450.24 285.8 450.893 289.92 450.28 293.653Z" fill="#5A6C51"/>
<path d="M404.161 376.413C415.815 364.68 424.988 350.48 430.92 335.053C430.573 334.733 430.201 334.453 429.815 334.212C424.283 348.771 415.817 362.22 405.087 373.527C407.284 366.6 409.403 359.62 411.52 352.599C414.215 343.653 416.828 334.773 419.227 325.907C431.453 313.667 441.24 298.933 447.8 282.907C447.667 282.747 447.52 282.587 447.375 282.427C447.187 282.227 446.988 282.04 446.775 281.867C440.576 297.208 431.421 311.361 419.935 323.265C423.935 308.159 427.255 293.093 429.121 277.88V277.867C429.321 277.839 429.495 277.719 429.587 277.52C438.787 258.453 443.148 237.373 442.293 216.24C441.853 216.107 441.4 216.013 440.935 215.973C441.815 236.104 437.895 256.197 429.509 274.529C429.961 270.376 430.308 266.22 430.52 262.04C431.693 239.413 429.335 207.347 412.335 179.307C411.948 179.547 411.601 179.827 411.268 180.133C428.013 207.867 430.36 239.573 429.201 261.973C429.161 262.853 429.108 263.747 429.041 264.627V264.64C426.935 249.545 421.08 235.08 412.108 222.787C411.747 223.067 411.413 223.373 411.108 223.707C421 237.32 427.041 253.599 428.321 270.413C428.335 270.587 428.413 270.747 428.548 270.867C427.133 286.053 424.161 301.08 420.375 316.133V316.147C419.948 302.347 417.453 288.453 413.067 275.333C412.587 275.227 412.095 275.187 411.601 275.2C416.52 289.667 419.095 305.093 419.12 320.32C419.12 320.44 419.161 320.56 419.227 320.653C418.828 322.212 418.413 323.773 417.988 325.333L417.893 325.653C415.52 334.48 412.92 343.32 410.24 352.213C408.815 356.932 407.388 361.627 405.948 366.307C406.535 351.48 404.973 336.733 401.293 322.36C400.84 322.293 400.375 322.267 399.895 322.28C404.001 338.133 405.508 354.427 404.375 370.787L404.441 371.093C399.733 386.067 394.747 400.813 388.948 415.16V415.146C389.453 402.84 388.815 390.507 387.013 378.333C386.573 378.2 386.108 378.12 385.64 378.107C387.601 391.28 388.227 404.64 387.481 417.947C387.467 418.12 387.52 418.28 387.627 418.4C384.68 425.545 381.507 432.586 378.08 439.507C375.333 445.053 372.413 450.52 369.281 455.907C369.095 456.226 369.201 456.626 369.52 456.813L369.853 456.907C370.08 456.907 370.307 456.786 370.428 456.573C373.64 451.026 376.64 445.4 379.467 439.693C382.108 434.333 384.601 428.907 386.948 423.414C399.467 414.333 410.64 403.64 420.215 391.533C419.988 391.12 419.721 390.733 419.428 390.373C410.335 401.932 399.775 412.212 387.96 421.014C394.08 406.507 399.293 391.6 404.148 376.427L404.161 376.413Z" fill="#99AA82"/>
<path d="M116.973 461.447C119.616 461.972 122.736 461.12 125.821 460.093C135.472 456.876 145.421 451.877 155.281 445.272C153.133 446.983 151.744 450.11 151.336 452.943C151.268 453.409 151.229 453.874 151.229 454.324C151.212 454.471 151.217 454.629 151.215 454.783C151.285 457.972 152.924 459.94 155.043 460.64C157.161 461.337 159.729 460.922 162.283 460.325C172.799 457.892 183.927 452.612 194.869 444.847C192.072 447.548 189.928 452.133 189.353 455.934C189.161 457.2 189.153 458.373 189.316 459.428C189.367 459.835 189.448 460.222 189.564 460.58C190.016 462.15 190.895 463.321 192.115 463.824C195.473 465.21 200.345 461.921 204.693 458.755C215.135 451.156 228.064 442.861 238.507 435.264C238.724 434.756 238.943 434.265 239.161 433.756C239.372 433.261 239.583 432.784 239.793 432.289C240.612 430.398 241.428 428.508 242.252 426.604C233.763 422.885 224.752 419.464 216.255 415.741C214.012 414.753 211.696 413.76 208.911 414.233C206.133 414.712 202.727 416.989 200.616 420.743C200.501 420.941 200.4 421.132 200.301 421.338C200.06 421.819 199.856 422.317 199.697 422.805C198.688 425.788 198.916 428.85 200.536 429.545C192.331 427.379 185.336 423.562 179.251 417.455C177.547 415.745 175.935 413.877 173.879 412.761C171.829 411.649 169.255 411.35 166.44 412.762C164.264 413.852 161.955 416.152 160.447 418.889C160.181 419.373 159.948 419.856 159.744 420.337C159.604 420.679 159.471 421.025 159.36 421.365C158.312 424.519 158.896 427.595 160.644 428.288C153.407 427.514 147.001 424.837 142.788 418.589C141.183 416.205 139.815 413.443 137.597 411.998C135.363 410.565 131.972 410.756 128.959 413.793C128.219 414.529 127.553 415.477 127.004 416.504C126.732 417.002 126.492 417.516 126.296 418.037C125.211 420.755 125.029 423.585 126.415 424.538C119.016 424.161 113.188 420.128 110.076 412.555C108.795 409.44 107.975 405.841 106.365 403.108C104.764 400.379 102.156 398.576 98.7734 399.774C98.3694 399.926 97.9521 400.121 97.5361 400.371C97.1801 400.581 96.8254 400.826 96.4707 401.108C93.7987 403.201 91.3267 407.007 91.0787 410.374C84.2494 407.214 84.9148 393.596 79.5188 387.989C78.3761 386.8 76.9347 385.973 75.1547 386.161C74.2574 386.262 73.2561 386.653 72.2921 387.307C71.9388 387.552 71.5908 387.82 71.2454 388.14C70.6788 388.656 70.1387 389.272 69.6561 389.988C68.0721 392.305 67.3494 395.214 67.3721 397.562C67.4014 399.898 68.0748 401.774 68.8121 403.514C72.2681 411.614 77.4254 417.857 83.9001 421.728C82.1161 420.841 78.7814 424.886 77.2201 428.135L77.1214 428.36C76.8961 428.847 76.7068 429.336 76.5481 429.824C75.6308 432.614 75.7348 435.369 76.5081 437.264C77.4454 439.556 79.2108 440.814 81.0308 441.857C90.8761 447.467 103.497 447.888 116.917 443.05C114 445.273 112.127 450.592 112.043 454.303C112.029 454.572 112.029 454.832 112.045 455.083C112.06 455.28 112.073 455.479 112.095 455.662C112.46 459.022 114.489 460.937 116.973 461.447Z" fill="#4A5843"/>
<path d="M189.42 439.661C176.413 447.952 163.309 452.972 151.229 454.324C151.229 453.874 151.268 453.409 151.336 452.943C162.699 451.736 174.992 447.21 187.257 439.728C182.083 439.86 176.92 439.896 171.735 439.919C165.128 439.941 158.604 439.904 152.201 439.655C138.596 448.374 124.856 453.856 112.095 455.662C112.073 455.479 112.06 455.28 112.045 455.083C112.029 454.832 112.029 454.572 112.043 454.303C124.215 452.656 137.283 447.641 150.297 439.572C139.437 439.053 128.963 437.857 119.181 435.137L119.173 435.135C119.051 435.329 118.889 435.469 118.725 435.503C102.796 439.072 88.2934 437.107 76.548 429.824C76.7067 429.336 76.896 428.847 77.1213 428.36C88.2747 435.367 101.971 437.48 117.04 434.514C114.399 433.714 111.816 432.805 109.287 431.753C95.596 426.077 78.3427 413.943 71.2454 388.14C71.5907 387.82 71.9387 387.552 72.292 387.307C79.3493 412.759 96.4014 424.769 109.955 430.389C110.484 430.616 111.028 430.833 111.572 431.033L111.58 431.037C103.992 424.312 98.7707 413.968 96.4707 401.108C96.8253 400.826 97.18 400.581 97.536 400.371C100.107 414.565 106.276 425.652 115.299 432.056C115.392 432.122 115.441 432.253 115.44 432.425C124.963 435.598 135.229 437.136 145.945 437.853L145.952 437.857C138.213 433.234 131.525 426.481 126.296 418.037C126.492 417.516 126.732 417.002 127.004 416.504C132.725 425.9 140.256 433.2 149.033 437.849L149.169 438.059C150.284 438.125 151.404 438.179 152.533 438.219L152.768 438.22C159.133 438.486 165.628 438.525 172.196 438.498C175.684 438.481 179.157 438.455 182.628 438.41C173.755 434.507 166.075 428.443 159.744 420.337C159.948 419.856 160.181 419.373 160.447 418.889C167.403 427.879 176.005 434.357 186.057 438.171L186.199 438.331C197.36 438.091 208.541 437.495 219.927 435.95L219.919 435.947C212.543 432.725 205.764 428.331 199.697 422.805C199.856 422.317 200.06 421.819 200.301 421.338C206.859 427.331 214.237 432.025 222.32 435.305C222.427 435.344 222.491 435.447 222.504 435.592C228.205 434.764 233.967 433.673 239.793 432.289C244.465 431.179 249.183 429.869 253.969 428.317C254.253 428.224 254.428 428.453 254.364 428.836C254.345 428.965 254.304 429.081 254.24 429.204C254.119 429.434 253.928 429.628 253.74 429.685C248.82 431.269 243.967 432.614 239.161 433.756C234.655 434.814 230.187 435.703 225.761 436.422C213.824 446.4 201.673 454.517 189.564 460.58C189.448 460.222 189.367 459.835 189.316 459.428C200.852 453.688 212.436 446.068 223.833 436.724C212.184 438.545 200.789 439.322 189.435 439.653L189.42 439.661Z" fill="#99AA82"/>
<path d="M323.425 174.769C323.425 148.581 316.608 124.009 304.629 102.695C302.713 99.2453 300.647 95.8773 298.443 92.62C289.667 79.5733 278.88 68.0067 266.504 58.3693C253.527 48.2387 238.797 40.2307 222.849 34.892C208.107 29.9493 192.323 27.2667 175.923 27.2667C160.727 27.2667 146.079 29.5667 132.281 33.8227C122.287 36.9173 112.759 41.0387 103.807 46.076C58.8094 71.332 28.4187 119.505 28.4187 174.769C28.4187 188.911 30.404 202.587 34.1267 215.537C36.172 222.66 38.7614 229.551 41.8054 236.191C47.5294 259.024 49.392 282.744 47.26 306.043C46.9907 308.979 46.688 312.087 47.984 314.768C49.28 317.448 52.8507 319.305 55.3254 317.712C57.4214 316.361 57.6627 313.452 57.692 310.951C57.824 299.819 57.9547 288.685 58.0867 277.552C58.1094 275.687 57.6494 273.6 59.3907 272.316C63.3 269.433 68.1947 275.479 69.6574 278.459C73.0174 285.312 73.5107 293.157 72.7761 300.649C72.4894 303.564 72.2827 307.156 74.7787 308.771C77.3427 310.432 80.924 308.356 81.9587 305.539C82.9934 302.72 82.3107 299.579 81.7787 296.599C81.3494 294.192 81.0761 291.547 81.9414 289.203C82.0134 289.005 82.1107 288.839 82.1947 288.659C88.064 293.495 94.312 297.891 100.892 301.787C100.949 302.619 100.999 303.448 101.036 304.269C101.677 318.549 101.563 332.851 100.689 347.095C100.496 350.255 100.287 353.563 102.163 356.369C103.237 357.979 105.048 359.073 106.979 358.931C111.093 358.627 112.295 353.541 112.539 349.545C113.133 339.769 113.729 329.992 114.324 320.215C114.551 316.496 115.479 311.924 118.923 310.824C120.967 311.681 123.035 312.492 125.123 313.26C125.208 313.377 125.303 313.489 125.379 313.611C126.639 315.631 126.875 318.119 126.656 320.463C126.205 325.273 123.993 329.915 125.885 334.859C126.776 337.181 128.844 338.972 131.332 339.053C136.22 339.213 137.879 333.353 137.268 328.873C136.725 324.893 135.347 320.608 136.896 317.023C141.781 318.361 146.759 319.471 151.833 320.304C152.896 322.063 153.492 324.099 153.424 326.133C153.329 329.015 152.043 331.817 153.267 334.737C153.845 336.123 155.168 337.151 156.668 337.067C159.736 336.896 160.124 333.041 160.548 330.187C161.265 325.341 164.577 323.851 168.867 322.093C171.207 322.204 173.556 322.272 175.923 322.272C185.653 322.272 195.153 321.301 204.359 319.501C209.209 320.739 211.332 319.951 211.373 324.813C211.444 333.159 211.513 341.505 211.584 349.852C211.611 352.999 212.215 356.961 215.259 357.888C217.316 358.516 219.541 357.225 220.645 355.423C221.749 353.619 221.983 351.425 222.144 349.307C222.948 338.732 222.589 328 224.707 317.629C225.012 316.131 225.496 314.763 226.092 313.489C236.215 309.827 245.82 305.091 254.775 299.413C255.739 299.68 256.372 300.243 256.412 301.269C256.672 307.832 256.933 314.396 257.193 320.959C257.341 324.699 258.815 329.721 262.568 329.481C265.941 329.264 266.973 324.913 267.004 321.555C267.101 311.145 266.348 300.221 267.887 290.056C275.585 283.904 282.653 277 288.981 269.452C289.049 269.607 289.141 269.749 289.192 269.915C289.837 272.019 289.005 274.221 288.553 276.356C288.099 278.489 288.232 281.137 290.085 282.355C292.511 283.949 295.829 281.567 296.447 278.779C297.065 275.989 296.028 273.113 295.54 270.28C294.941 266.807 295.265 263.239 296.336 259.915C297.959 257.623 299.533 255.296 301.025 252.911C303.36 252.169 306.189 253.592 306.476 256.475L309.784 289.912C309.975 291.825 311.541 293.433 313.463 293.391C316.143 293.332 316.695 290.131 316.667 287.68C316.377 263.069 317.621 240.979 317.4 216.481C317.621 215.731 317.864 214.989 318.072 214.236C321.563 201.669 323.425 188.432 323.425 174.769Z" fill="#4A5843"/>
<path d="M79.3321 338.717C79.1721 339.972 79.1107 341.291 79.5987 342.457C80.0881 343.623 81.2654 344.585 82.5227 344.447C84.5454 344.227 85.2813 341.699 85.468 339.673C85.6667 337.533 87.5241 327.784 83.8801 327.857C81.1814 327.911 79.5841 336.736 79.3321 338.717Z" fill="#7A926B"/>
<path d="M195.491 343.404C195.475 344.828 195.579 346.312 196.279 347.552C196.977 348.792 198.421 349.713 199.809 349.396C202.043 348.884 202.535 345.96 202.479 343.669C202.42 341.251 203.223 330.101 199.156 330.66C196.145 331.075 195.513 341.155 195.491 343.404Z" fill="#7A926B"/>
<path d="M36.056 275.363C36.0227 276.307 36.068 277.291 36.512 278.124C36.956 278.959 37.8973 279.592 38.824 279.404C40.312 279.101 40.6853 277.168 40.684 275.651C40.684 274.045 41.3947 266.668 38.6893 266.973C36.6867 267.2 36.108 273.872 36.056 275.363Z" fill="#7A926B"/>
<path d="M289.663 299.752C289.585 300.7 289.615 301.685 290.193 302.507C290.775 303.327 292.047 303.931 293.323 303.711C295.376 303.353 295.955 301.404 296.007 299.879C296.061 298.269 297.289 290.844 293.567 291.244C290.811 291.54 289.785 298.255 289.663 299.752Z" fill="#7A926B"/>
<path d="M209.46 217.412C200.576 210.472 187.832 210.951 178.125 205.228C171.295 201.176 166.585 194.441 161.397 188.432C156.196 182.436 149.693 176.7 141.781 176.001C137.016 175.577 132.321 177.041 127.668 178.124C123.012 179.205 117.961 179.889 113.567 178.028C109.159 176.165 105.9 170.881 107.804 166.488C103.984 166.789 99.9734 162.532 101.52 159.027C102.341 157.152 104.244 155.523 103.875 153.511C103.451 151.073 100.096 150.471 97.756 151.305C95.428 152.128 93.3067 153.769 90.8427 153.797C87.996 153.825 85.5041 151.525 84.5601 148.843C83.6281 146.159 83.9708 143.188 84.6961 140.436C86.4214 133.839 90.7201 127.528 97.1254 125.173C103.532 122.819 111.924 125.707 114.101 132.168C114.867 134.44 114.867 136.945 115.84 139.123C116.825 141.313 119.425 143.12 121.548 142.024C119.659 135.001 123.519 127.583 128.748 122.531C133.964 117.48 140.521 114.016 146.121 109.376C151.72 104.748 156.579 98.26 156.345 90.9907C159.208 91.388 165.724 92.168 168.529 91.5387C171.349 90.908 174.06 89.0054 174.799 86.2267C175.511 83.5707 174.32 80.764 172.691 78.5467C168.981 73.44 162.931 70.2373 156.661 69.4853C150.392 68.732 143.957 70.292 138.427 73.3454C136.36 74.4947 134.389 75.8494 132.143 76.5627C129.897 77.288 127.243 77.2734 125.381 75.8227C128.597 67.4587 136.14 60.8747 144.875 58.82C153.609 56.7814 163.464 59.368 170.091 65.432C170.501 59.82 168.667 54.056 165.065 49.7307C161.48 45.3907 156.155 42.5307 150.569 41.9C145.327 41.3254 139.317 42.42 135.347 38.9427C133.773 37.5747 132.815 35.7947 132.281 33.8227C122.287 36.9174 112.759 41.0387 103.807 46.076C105.436 51.0854 104.244 57.1507 101.315 61.7227C97.3987 67.828 91.1161 71.9347 85.0521 75.9187C79.0014 79.9013 72.7867 84.1734 69.1587 90.4574C64.6001 98.3414 64.8881 107.992 65.3121 117.083C65.6947 125.433 66.0787 133.784 66.4614 142.12C66.6534 146.296 67.0094 150.868 69.8974 153.879C72.9094 157.001 77.6721 157.439 81.5881 159.3C86.2561 161.519 89.6107 165.721 92.8134 169.787C95.8947 173.715 98.9734 177.644 102.067 181.573C104.381 184.516 106.764 187.528 109.967 189.472C113.171 191.416 117.399 192.1 120.631 190.197C122.096 197.795 112.909 203.627 111.651 211.252C111.277 213.512 111.627 215.765 112.351 217.947L113.919 247.048C113.977 248.143 114.745 249.157 115.833 249.296C117.621 249.525 118.223 247.333 118.307 245.68C118.423 243.46 118.537 241.241 118.652 239.021C118.708 237.927 118.896 236.621 119.889 236.155C121.005 235.625 122.329 236.66 122.672 237.847C123.016 239.035 122.731 240.299 122.668 241.533C122.619 242.525 122.721 243.523 122.963 244.485C123.447 246.407 126.26 246.112 126.377 244.135L126.38 244.085C126.449 242.965 126.835 241.704 127.584 240.959C129.019 242.531 130.495 244.064 132.029 245.539C132.5 252.527 132.625 259.537 132.396 266.539C132.364 267.505 132.335 268.519 132.756 269.391C133.176 270.263 134.209 270.924 135.117 270.587C136.18 270.191 136.416 268.819 136.483 267.687C136.827 261.916 137.171 256.145 137.515 250.375C139.835 252.284 142.221 254.113 144.711 255.797C143.012 272.607 146.9 289.679 156.648 303.477C158.084 305.531 159.741 307.584 162.041 308.569C164.34 309.569 167.448 309.131 168.748 306.983C170.392 304.271 168.435 300.904 167.819 297.783C166.805 292.649 169.776 287.42 173.813 284.093C175.161 282.983 176.619 282.043 178.135 281.191C178.299 286.795 178.463 292.397 178.627 298.001C178.663 299.209 178.897 300.701 180.045 301.077C180.931 301.369 181.907 300.74 182.331 299.909C182.753 299.079 182.761 298.107 182.76 297.175C182.756 293.083 182.751 288.991 182.747 284.899C182.745 283.917 182.753 282.892 183.192 282.013C183.631 281.133 184.64 280.455 185.584 280.728C187.133 281.177 187.092 283.349 186.873 284.948C186.653 286.547 187.216 288.817 188.82 288.643C189.768 288.54 190.36 287.507 190.417 286.555C190.475 285.603 190.163 284.671 190.076 283.721C189.767 280.303 192.336 277.347 194.893 275.056C196.003 274.061 197.193 273.075 198.629 272.679C200.065 272.281 201.815 272.635 202.635 273.877C203.673 275.456 202.844 277.523 202.504 279.381C202.164 281.239 203.095 283.823 204.961 283.536C206.584 283.284 206.989 281.16 207.005 279.519C207.055 274.228 207.105 268.937 207.155 263.649C210.563 260.263 213.451 256.419 215.539 252.06C221.001 240.629 219.427 225.228 209.46 217.412Z" fill="#343E2E"/>
<path d="M173.783 51.3227C175.209 52.4201 176.843 53.3734 177.743 54.9307C179.016 57.1321 178.483 59.9054 179.013 62.3907C179.927 66.6667 186.327 73.3561 190.656 71.9574C195.637 70.3467 200.197 61.6467 201.239 57.0001C202.748 50.2667 199.867 42.2894 193.544 39.5267C187.748 36.9947 181.025 39.2681 175.391 42.1401C173.384 43.1627 171.161 44.6507 171.067 46.9014C170.993 48.6987 172.356 50.2254 173.783 51.3227Z" fill="#343E2E"/>
<path d="M117.128 149.012C116.275 149.097 115.328 149.275 114.825 149.971C112.124 153.701 125.211 158.271 127.709 159.243C132.551 161.124 137.589 166.584 142.527 167.228C143.923 167.409 145.539 166.731 145.931 165.379C146.273 164.207 145.621 162.991 144.935 161.983C138.892 153.109 127.809 147.94 117.128 149.012Z" fill="#343E2E"/>
<path d="M270.077 104.597C272.459 101.901 272.513 97.9587 273.131 94.4134C273.732 90.868 275.719 86.856 279.304 86.5414C282.467 86.268 284.957 88.9787 287.6 90.7027C290.776 92.7694 294.732 93.3454 298.443 92.62C280.468 65.8707 253.979 45.3227 222.849 34.892C222.768 35.384 222.727 35.8907 222.713 36.3827C222.548 41.1201 225.025 45.8707 229.009 48.4574C230.803 49.6214 232.952 50.4561 234.115 52.2494C235.499 54.3721 235.088 57.288 236.375 59.4774C237.743 61.804 240.645 62.7214 243.329 63.0507C246.011 63.3654 248.819 63.324 251.255 64.5014C253.677 65.6787 255.54 68.6774 254.321 71.0867C253.035 73.66 249.283 73.7974 246.711 72.524C244.151 71.2507 242.152 69.0054 239.577 67.7187C237.017 66.4454 233.267 66.568 231.967 69.128C230.761 71.4974 232.513 74.4667 234.868 75.7C237.224 76.9454 240.001 76.9867 242.631 77.3974C247.751 78.1907 252.637 80.4494 256.565 83.8307C257.976 85.0627 259.317 86.4867 259.907 88.28C260.496 90.06 260.18 92.2494 258.728 93.428C257.005 94.8374 254.293 94.468 252.611 95.9187C251.104 97.2334 250.981 99.656 251.897 101.435C252.816 103.201 254.527 104.433 256.292 105.364C260.673 107.692 266.792 108.321 270.077 104.597Z" fill="#343E2E"/>
<path d="M312.788 95.1654C312.885 95.4814 312.98 95.7947 313.076 96.1107C313.035 95.7947 312.94 95.4814 312.788 95.1654Z" fill="#7A926B"/>
<path d="M304.629 102.695C301.508 102.489 298.415 101.367 295.267 101.285C288.257 101.093 282.207 105.884 276.853 110.403C274.403 112.483 271.816 114.741 270.967 117.849C270.201 120.641 270.995 123.695 270.241 126.488C268.859 131.552 262.78 134.673 262.48 139.903C262.165 145.215 267.928 148.911 269.243 154.057C270.46 158.849 267.587 163.668 267.065 168.596C266.931 169.879 266.984 171.176 267.18 172.451C267.695 182.836 268.209 193.22 268.723 203.605C268.82 205.567 269.533 208.149 271.496 208.113C273.507 208.077 274.08 205.363 274.031 203.351C273.96 200.573 273.891 197.795 273.821 195.016C273.788 193.743 273.765 192.424 274.259 191.249C274.752 190.075 275.912 189.08 277.18 189.2C278.98 189.372 279.879 191.532 279.833 193.337C279.791 195.144 279.208 196.984 279.691 198.724C280.173 200.465 282.512 201.821 283.784 200.539C284.617 199.699 284.445 198.333 284.319 197.157C284 194.185 284.428 190.992 286.259 188.629C288.089 186.265 291.565 185.048 294.219 186.427C296.115 187.412 297.247 189.48 297.685 191.573C298.124 193.665 297.979 195.829 297.953 197.968C297.94 199.157 297.979 200.407 298.565 201.441C299.155 202.477 300.467 203.196 301.561 202.729C302.888 202.163 303.093 200.404 303.1 198.963C303.125 193.015 303.152 187.067 303.177 181.119C303.329 181.159 303.479 181.183 303.631 181.231C308.764 182.832 311.324 188.596 312.159 193.893C312.995 199.205 312.788 204.819 315.115 209.651C315.896 211.252 316.937 212.771 318.072 214.236C321.563 201.669 323.425 188.432 323.425 174.769C323.425 148.581 316.608 124.009 304.629 102.695Z" fill="#343E2E"/>
<path d="M175.921 322.272C173.547 322.272 171.184 322.216 168.836 322.105C168.847 322.101 168.856 322.097 168.867 322.093C171.207 322.204 173.555 322.272 175.923 322.272C175.921 322.272 175.921 322.272 175.921 322.272ZM176.059 322.272C176.087 322.272 176.115 322.272 176.143 322.272C176.113 322.272 176.088 322.272 176.059 322.272ZM176.164 322.272C185.809 322.256 195.229 321.287 204.359 319.501C204.381 319.508 204.405 319.513 204.428 319.519C195.283 321.311 185.829 322.256 176.164 322.272ZM151.841 320.316C146.764 319.483 141.772 318.389 136.883 317.051C136.887 317.041 136.892 317.032 136.896 317.023C141.781 318.361 146.759 319.471 151.833 320.304C151.836 320.308 151.839 320.312 151.841 320.316ZM226.076 313.524C226.081 313.512 226.087 313.501 226.092 313.489C236.215 309.827 245.82 305.091 254.775 299.413C254.785 299.416 254.796 299.419 254.805 299.423C245.84 305.109 236.215 309.857 226.076 313.524ZM125.156 313.304C123.041 312.528 120.949 311.705 118.881 310.839C118.895 310.833 118.909 310.829 118.923 310.824C120.967 311.681 123.035 312.492 125.123 313.26C125.133 313.275 125.145 313.289 125.156 313.304ZM100.892 301.789C94.3107 297.895 88.0627 293.504 82.1907 288.667C82.1921 288.664 82.1934 288.661 82.1947 288.659C88.064 293.495 94.312 297.891 100.892 301.787C100.892 301.788 100.892 301.789 100.892 301.789ZM267.88 290.096C267.883 290.084 267.884 290.069 267.887 290.056C275.585 283.904 282.653 277 288.981 269.452C288.985 269.461 288.989 269.471 288.993 269.48C282.66 277.035 275.588 283.941 267.88 290.096ZM296.308 260.004C296.317 259.975 296.327 259.944 296.336 259.915C297.959 257.623 299.533 255.296 301.025 252.911C301.031 252.909 301.036 252.908 301.04 252.905C299.531 255.32 297.952 257.687 296.308 260.004ZM41.8387 236.321C38.7934 229.7 36.2241 222.811 34.1761 215.705C36.2121 222.769 38.7854 229.604 41.8054 236.191C41.8161 236.233 41.8281 236.279 41.8387 236.321ZM317.401 216.583C317.401 216.548 317.401 216.515 317.4 216.481C317.621 215.731 317.864 214.989 318.072 214.236C317.856 215.019 317.631 215.805 317.401 216.583ZM34.1747 215.701C34.1587 215.645 34.1427 215.593 34.1267 215.537C34.1427 215.592 34.1587 215.647 34.1747 215.701Z" fill="#AEBD83"/>
<path d="M175.923 322.272C173.555 322.272 171.207 322.204 168.867 322.093C168.856 322.097 168.847 322.101 168.836 322.105C163.077 321.833 157.408 321.231 151.841 320.316C151.839 320.312 151.836 320.308 151.833 320.304C146.759 319.471 141.781 318.361 136.896 317.023C136.892 317.032 136.887 317.041 136.883 317.051C132.905 315.963 128.991 314.709 125.156 313.304C125.145 313.289 125.133 313.275 125.123 313.26C123.035 312.492 120.967 311.681 118.923 310.824C118.909 310.829 118.895 310.833 118.881 310.839C112.656 308.225 106.648 305.197 100.892 301.789C100.892 301.789 100.892 301.788 100.892 301.787C94.312 297.891 88.064 293.495 82.1947 288.659C82.1934 288.661 82.1921 288.664 82.1907 288.667C65.0827 274.571 51.2067 256.697 41.8387 236.321C41.8281 236.279 41.8161 236.233 41.8054 236.191C38.7854 229.604 36.2121 222.769 34.1761 215.705L34.1747 215.701C34.1587 215.647 34.1427 215.592 34.1267 215.537C42.8614 228.515 54.6067 239.547 67.9401 247.789C87.2521 259.712 109.727 265.992 132.383 267.581C132.4 268.211 132.484 268.829 132.756 269.391C133.1 270.104 133.853 270.676 134.613 270.676C134.783 270.676 134.952 270.648 135.117 270.587C136.14 270.205 136.397 268.923 136.475 267.819C136.673 267.827 136.872 267.836 137.071 267.844C139.337 267.939 141.613 267.987 143.883 267.987C144.076 267.987 144.269 267.985 144.463 267.985C145.235 280.671 149.257 293.015 156.648 303.477C158.084 305.531 159.741 307.584 162.041 308.569C162.816 308.907 163.683 309.08 164.54 309.08C166.229 309.08 167.887 308.407 168.748 306.983C170.392 304.271 168.435 300.904 167.819 297.783C166.805 292.649 169.776 287.42 173.813 284.093C175.161 282.983 176.619 282.043 178.135 281.191C178.299 286.795 178.463 292.397 178.627 298.001C178.663 299.209 178.897 300.701 180.045 301.077C180.195 301.127 180.348 301.149 180.5 301.149C181.245 301.149 181.979 300.599 182.331 299.909C182.753 299.079 182.761 298.107 182.76 297.175C182.756 293.083 182.751 288.991 182.747 284.899C182.745 283.917 182.753 282.892 183.192 282.013C183.564 281.268 184.345 280.667 185.149 280.667C185.295 280.667 185.44 280.687 185.584 280.728C187.133 281.177 187.092 283.349 186.873 284.948C186.661 286.489 187.176 288.652 188.648 288.652C188.704 288.652 188.761 288.648 188.82 288.643C189.768 288.54 190.36 287.507 190.417 286.555C190.475 285.603 190.163 284.671 190.076 283.721C189.767 280.303 192.336 277.347 194.893 275.056C196.003 274.061 197.193 273.075 198.629 272.679C199.001 272.576 199.393 272.524 199.785 272.524C200.908 272.524 202.027 272.956 202.635 273.877C203.673 275.456 202.844 277.523 202.504 279.381C202.181 281.143 203.001 283.557 204.68 283.557C204.771 283.557 204.865 283.551 204.961 283.536C206.584 283.284 206.989 281.16 207.005 279.519C207.055 274.228 207.105 268.937 207.155 263.649C210.563 260.263 213.451 256.419 215.539 252.06C215.652 251.823 215.763 251.581 215.871 251.341C228.309 245.176 239.88 237.329 250.077 227.857C257.192 221.248 263.573 213.84 269.104 205.839C269.5 207.087 270.232 208.113 271.456 208.113C271.469 208.113 271.483 208.113 271.496 208.113C273.507 208.077 274.08 205.363 274.031 203.351C273.989 201.697 273.947 200.043 273.905 198.388C275.573 195.608 277.143 192.767 278.608 189.877C279.451 190.693 279.864 192.099 279.833 193.337C279.791 195.144 279.208 196.984 279.691 198.724C280.041 199.985 281.364 201.044 282.552 201.044C283.003 201.044 283.435 200.892 283.784 200.539C284.617 199.699 284.445 198.333 284.319 197.157C284 194.185 284.428 190.992 286.259 188.629C287.561 186.948 289.696 185.847 291.775 185.847C292.619 185.847 293.452 186.028 294.219 186.427C296.115 187.412 297.247 189.48 297.685 191.573C298.124 193.665 297.979 195.829 297.953 197.968C297.94 199.157 297.979 200.407 298.565 201.441C299.029 202.256 299.94 202.875 300.84 202.875C301.085 202.875 301.328 202.829 301.561 202.729C302.888 202.163 303.093 200.404 303.1 198.963C303.125 193.015 303.152 187.067 303.177 181.119C303.329 181.159 303.479 181.183 303.631 181.231C308.764 182.832 311.324 188.596 312.159 193.893C312.995 199.205 312.788 204.819 315.115 209.651C315.896 211.252 316.937 212.771 318.072 214.236C317.864 214.989 317.621 215.731 317.4 216.481C317.401 216.515 317.401 216.548 317.401 216.583C313.585 229.52 308.043 241.715 301.04 252.905C301.036 252.908 301.031 252.909 301.025 252.911C299.533 255.296 297.959 257.623 296.336 259.915C296.327 259.944 296.317 259.975 296.308 260.004C293.997 263.263 291.556 266.425 288.993 269.48C288.989 269.471 288.985 269.461 288.981 269.452C282.653 277 275.585 283.904 267.887 290.056C267.884 290.069 267.883 290.084 267.88 290.096C263.701 293.433 259.339 296.548 254.805 299.423C254.796 299.419 254.785 299.416 254.775 299.413C245.82 305.091 236.215 309.827 226.092 313.489C226.087 313.501 226.081 313.512 226.076 313.524C219.091 316.051 211.859 318.064 204.428 319.519C204.405 319.513 204.381 319.508 204.359 319.501C195.229 321.287 185.809 322.256 176.164 322.272C176.155 322.272 176.151 322.272 176.143 322.272C176.115 322.272 176.087 322.272 176.059 322.272C176.051 322.272 176.039 322.272 176.029 322.272C175.996 322.272 175.963 322.272 175.931 322.272C175.925 322.272 175.925 322.272 175.921 322.272" fill="#415337"/>
<path d="M164.54 309.08C163.683 309.08 162.816 308.907 162.041 308.569C159.741 307.584 158.084 305.531 156.648 303.477C149.257 293.015 145.235 280.671 144.463 267.985C169.124 267.899 193.855 262.252 215.871 251.341C215.763 251.581 215.652 251.823 215.539 252.06C213.451 256.419 210.563 260.263 207.155 263.649C207.105 268.937 207.055 274.228 207.005 279.519C206.989 281.16 206.584 283.284 204.961 283.536C204.865 283.551 204.771 283.557 204.68 283.557C203.001 283.557 202.181 281.143 202.504 279.381C202.844 277.523 203.673 275.456 202.635 273.877C202.027 272.956 200.908 272.524 199.785 272.524C199.393 272.524 199.001 272.576 198.629 272.679C197.193 273.075 196.003 274.061 194.893 275.056C192.336 277.347 189.767 280.303 190.076 283.721C190.163 284.671 190.475 285.603 190.417 286.555C190.36 287.507 189.768 288.54 188.82 288.643C188.761 288.648 188.704 288.652 188.648 288.652C187.176 288.652 186.661 286.489 186.873 284.948C187.092 283.349 187.133 281.177 185.584 280.728C185.44 280.687 185.295 280.667 185.149 280.667C184.345 280.667 183.564 281.268 183.192 282.013C182.753 282.892 182.745 283.917 182.747 284.899C182.751 288.991 182.756 293.083 182.76 297.175C182.761 298.107 182.753 299.079 182.331 299.909C181.979 300.599 181.245 301.149 180.5 301.149C180.348 301.149 180.195 301.127 180.045 301.077C178.897 300.701 178.663 299.209 178.627 298.001C178.463 292.397 178.299 286.795 178.135 281.191C176.619 282.043 175.161 282.983 173.813 284.093C169.776 287.42 166.805 292.649 167.819 297.783C168.435 300.904 170.392 304.271 168.748 306.983C167.887 308.407 166.229 309.08 164.54 309.08ZM134.613 270.676C133.853 270.676 133.1 270.104 132.756 269.391C132.484 268.829 132.4 268.211 132.383 267.581C133.745 267.677 135.111 267.756 136.475 267.819C136.397 268.923 136.14 270.205 135.117 270.587C134.952 270.648 134.783 270.676 134.613 270.676Z" fill="#2D3926"/>
<path d="M304.629 102.695C301.508 102.489 298.415 101.367 295.267 101.285C295.131 101.281 294.995 101.28 294.859 101.28C292.868 101.28 290.956 101.677 289.115 102.351C287.847 97.6014 286.268 92.9334 284.401 88.3801C285.479 89.1401 286.527 90.0027 287.6 90.7027C289.907 92.2054 292.627 92.9187 295.365 92.9187C296.396 92.9187 297.428 92.8174 298.443 92.62C300.647 95.8774 302.713 99.2454 304.629 102.695Z" fill="#415337"/>
<path d="M295.365 92.9187C292.627 92.9187 289.907 92.2054 287.6 90.7027C286.527 90.0027 285.479 89.1401 284.401 88.3801C279.964 77.5561 273.897 67.392 266.504 58.3694C278.88 68.0067 289.667 79.5734 298.443 92.62C297.428 92.8174 296.396 92.9187 295.365 92.9187Z" fill="#2D3926"/>
<path d="M318.072 214.236C316.937 212.771 315.896 211.252 315.115 209.651C312.788 204.819 312.995 199.205 312.159 193.893C311.324 188.596 308.764 182.832 303.631 181.231C303.479 181.183 303.329 181.159 303.177 181.119C303.152 187.067 303.125 193.015 303.1 198.963C303.093 200.404 302.888 202.163 301.561 202.729C301.328 202.829 301.085 202.875 300.84 202.875C299.94 202.875 299.029 202.256 298.565 201.441C297.979 200.407 297.94 199.157 297.953 197.968C297.979 195.829 298.124 193.665 297.685 191.573C297.247 189.48 296.115 187.412 294.219 186.427C293.452 186.028 292.619 185.847 291.775 185.847C289.696 185.847 287.561 186.948 286.259 188.629C284.428 190.992 284 194.185 284.319 197.157C284.445 198.333 284.617 199.699 283.784 200.539C283.435 200.892 283.003 201.044 282.552 201.044C281.364 201.044 280.041 199.985 279.691 198.724C279.208 196.984 279.791 195.144 279.833 193.337C279.864 192.099 279.451 190.693 278.608 189.877C289.98 167.448 295.139 141.957 291.995 117.041C291.371 112.087 290.403 107.177 289.115 102.351C290.956 101.677 292.868 101.28 294.859 101.28C294.995 101.28 295.131 101.281 295.267 101.285C298.415 101.367 301.508 102.489 304.629 102.695C316.608 124.009 323.425 148.581 323.425 174.769C323.425 177.083 323.372 179.384 323.267 181.671C322.932 188.916 322.073 196.027 320.727 202.965C319.987 206.776 319.1 210.536 318.072 214.236ZM271.456 208.113C270.232 208.113 269.5 207.087 269.104 205.839C270.784 203.408 272.387 200.921 273.905 198.388C273.947 200.043 273.989 201.697 274.031 203.351C274.08 205.363 273.507 208.077 271.496 208.113C271.483 208.113 271.469 208.113 271.456 208.113Z" fill="#2D3926"/>
<path d="M90.7919 153.797C87.9665 153.797 85.4972 151.509 84.5599 148.843C83.6279 146.159 83.9706 143.188 84.6959 140.436C86.4212 133.839 90.7199 127.528 97.1252 125.173C98.6199 124.624 100.223 124.36 101.828 124.36C107.108 124.36 112.432 127.213 114.101 132.168C114.867 134.44 114.867 136.945 115.84 139.123C116.62 140.859 118.416 142.353 120.184 142.353C120.647 142.353 121.108 142.252 121.548 142.024C119.659 135.001 123.519 127.583 128.748 122.531C133.964 117.48 140.521 114.016 146.121 109.376C151.72 104.748 156.579 98.26 156.345 90.9907C158.436 91.2814 162.477 91.7747 165.597 91.7747C166.748 91.7747 167.773 91.708 168.529 91.5387C169.488 91.324 170.436 90.9627 171.296 90.4694C166.479 103.449 156.819 117.428 143.285 129.58C130.481 141.08 116.415 148.959 103.569 152.652C102.908 151.491 101.404 150.952 99.8705 150.952C99.1439 150.952 98.4105 151.072 97.7559 151.305C95.4279 152.128 93.3065 153.769 90.8425 153.797C90.8252 153.797 90.8079 153.797 90.7919 153.797ZM66.8759 146.909C59.3426 138.449 59.2065 124.909 65.0932 110.275C65.1105 112.555 65.2066 114.836 65.3119 117.083C65.6946 125.433 66.0785 133.784 66.4612 142.12C66.5332 143.695 66.6292 145.327 66.8759 146.909ZM174.028 80.74C173.652 79.968 173.192 79.2294 172.691 78.5467C168.981 73.44 162.931 70.2373 156.661 69.4853C155.609 69.3587 154.552 69.2974 153.496 69.2974C148.257 69.2974 143.031 70.804 138.427 73.3454C136.36 74.4947 134.389 75.8494 132.143 76.5627C131.22 76.86 130.228 77.0334 129.251 77.0334C127.849 77.0334 126.477 76.6774 125.381 75.8227C128.597 67.4587 136.14 60.8747 144.875 58.82C146.856 58.3587 148.895 58.1334 150.94 58.1334C157.913 58.1334 164.967 60.744 170.091 65.432C170.349 61.9014 169.719 58.3093 168.319 55.0547C168.469 55.2133 168.619 55.3747 168.765 55.5374C174.321 61.724 175.895 70.648 174.028 80.74Z" fill="#61725B"/>
<path d="M87.9133 155.048C79.2079 155.048 71.8453 152.444 66.9386 146.98C66.9173 146.957 66.8959 146.932 66.8759 146.909C66.6293 145.327 66.5333 143.695 66.4613 142.12C66.0786 133.784 65.6946 125.433 65.3119 117.083C65.2066 114.836 65.1106 112.555 65.0933 110.275C70.1093 97.8028 79.4999 84.5374 92.4173 72.9361C110.712 56.5067 131.577 47.4681 147.791 47.4681C156.236 47.4681 163.416 49.9187 168.319 55.0547C169.719 58.3094 170.349 61.9014 170.091 65.4321C164.967 60.7441 157.913 58.1334 150.94 58.1334C148.895 58.1334 146.856 58.3587 144.875 58.8201C136.14 60.8747 128.597 67.4587 125.381 75.8227C126.477 76.6774 127.849 77.0334 129.251 77.0334C130.228 77.0334 131.22 76.8601 132.143 76.5627C134.389 75.8494 136.36 74.4948 138.427 73.3454C143.031 70.8041 148.257 69.2974 153.496 69.2974C154.552 69.2974 155.609 69.3587 156.661 69.4854C162.931 70.2374 168.981 73.4401 172.691 78.5468C173.192 79.2294 173.652 79.9681 174.028 80.7401C173.447 83.8854 172.529 87.1454 171.296 90.4694C170.436 90.9627 169.488 91.3241 168.529 91.5387C167.773 91.7081 166.748 91.7748 165.597 91.7748C162.477 91.7748 158.436 91.2814 156.345 90.9907C156.579 98.2601 151.72 104.748 146.121 109.376C140.521 114.016 133.964 117.48 128.748 122.531C123.519 127.583 119.659 135.001 121.548 142.024C121.108 142.252 120.647 142.353 120.184 142.353C118.416 142.353 116.62 140.859 115.84 139.123C114.867 136.945 114.867 134.44 114.101 132.168C112.432 127.213 107.108 124.36 101.828 124.36C100.223 124.36 98.6199 124.624 97.1253 125.173C90.7199 127.528 86.4213 133.839 84.696 140.436C83.9706 143.188 83.628 146.159 84.56 148.843C85.4973 151.509 87.9666 153.797 90.7919 153.797C90.8079 153.797 90.8252 153.797 90.8426 153.797C93.3066 153.769 95.4279 152.128 97.7559 151.305C98.4106 151.072 99.1439 150.952 99.8706 150.952C101.404 150.952 102.908 151.491 103.569 152.652C98.0613 154.235 92.7786 155.048 87.9133 155.048Z" fill="#4D5848"/>
<path d="M121.456 258.412C121.419 259.236 121.449 260.096 121.828 260.827C122.207 261.56 123.023 262.123 123.833 261.967C125.135 261.716 125.48 260.035 125.495 258.709C125.509 257.308 126.203 250.876 123.839 251.115C122.088 251.292 121.516 257.111 121.456 258.412Z" fill="#99AA82"/>
<path d="M284.924 212.033C284.896 212.675 284.917 213.345 285.215 213.917C285.509 214.488 286.145 214.927 286.777 214.805C287.792 214.609 288.063 213.299 288.072 212.265C288.085 211.172 288.625 206.156 286.783 206.343C285.417 206.481 284.971 211.019 284.924 212.033Z" fill="#99AA82"/>
<path d="M103.515 79.6027V11.0907C103.515 5.07069 98.6347 0.189357 92.6161 0.189357C86.5947 0.189357 81.7147 5.07069 81.7147 11.0907V79.6027C73.404 83.6534 67.6641 92.156 67.6641 102.021C67.6641 115.801 78.8361 126.972 92.6161 126.972C106.396 126.972 117.565 115.801 117.565 102.021C117.565 92.156 111.825 83.6534 103.515 79.6027Z" fill="white"/>
<path d="M111.804 102.02C111.804 112.607 103.193 121.217 92.6081 121.217C82.0214 121.217 73.4121 112.607 73.4121 102.02C73.4121 94.6373 77.5548 88.0213 84.2281 84.78L87.4681 83.208V11.0827C87.4681 8.24399 89.7708 5.94398 92.6081 5.94398C95.4468 5.94398 97.7668 8.24399 97.7668 11.0827V83.208L100.988 84.78C107.663 88.0213 111.804 94.6373 111.804 102.02Z" fill="#FAB939"/>
<path d="M111.804 102.02C111.804 112.607 103.193 121.217 92.6081 121.217C82.0214 121.217 73.4121 112.607 73.4121 102.02C73.4121 94.6373 77.5548 88.0213 84.2281 84.78L87.4681 83.208V45.1413H97.7668V83.208L100.988 84.78C107.663 88.0213 111.804 94.6373 111.804 102.02Z" fill="#F03D4F"/>
<path d="M363.976 182.625H317.932C318.333 178.757 321.917 176.151 325.709 175.292C329.503 174.433 333.453 175.199 337.251 176.039C336.513 172.881 338.677 170.265 341.168 168.187C344.295 165.576 348.173 163.737 352.243 163.539C356.312 163.341 360.551 164.931 363.085 168.121C365.62 171.311 366.2 179.211 363.976 182.625Z" fill="white"/>
<path d="M268.351 390.355V440.759H202.424L204.271 381.324L204.309 380.179L204.341 379.16L204.373 378.007L205.129 353.748L205.161 352.601L205.281 348.837H214.725L214.844 352.601L214.876 353.748L215.632 378.007L215.672 379.16L215.704 380.179L215.735 381.324L216.141 394.324H225.983V400.944L236.581 390.355V400.944L247.172 390.355V400.944L257.761 390.355V400.944L268.351 390.355Z" fill="#FBEFCD"/>
<path d="M224.387 415.64H219.207V410.46H224.387V415.64Z" fill="#99AA82"/>
<path d="M235.449 415.64H230.269V410.46H235.449V415.64Z" fill="#99AA82"/>
<path d="M246.511 415.64H241.332V410.46H246.511V415.64Z" fill="#99AA82"/>
<path d="M257.573 415.64H252.395V410.46H257.573V415.64Z" fill="#99AA82"/>
<path d="M214.876 353.748H205.129L205.161 352.601H214.844L214.876 353.748Z" fill="#FAB939"/>
<path d="M215.672 379.16H204.341L204.373 378.007H215.632L215.672 379.16Z" fill="#FAB939"/>
<path d="M215.735 381.324H204.271L204.309 380.179H215.704L215.735 381.324Z" fill="#FAB939"/>
<path d="M423.295 293.401C421.713 293.401 420.353 293.097 419.188 292.569C418.689 296.981 415.609 301.003 409.921 301.003C408.147 301.003 406.648 300.615 405.399 299.949C404.151 303.001 401.432 305.387 397.243 305.553C396.576 308.161 394.745 310.409 391.804 311.185C393.359 316.791 390.391 323.809 382.843 323.809L382.509 323.781C381.899 325.585 380.763 327.167 379.153 328.276C381.595 332.909 380.319 339.568 375.325 342.009C375.629 346.393 372.995 350.999 367.361 350.999C365.919 350.999 364.727 350.695 363.672 350.195C362.34 351.581 360.425 352.525 357.929 352.525C356.513 352.525 355.292 352.219 354.239 351.72C352.963 352.775 351.241 353.44 349.107 353.44C339.284 353.44 338.507 339.513 346.665 337.155C340.948 332.715 342.087 321.728 350.076 319.897C345.693 314.348 348.108 303.777 357.319 303.777C358.567 303.777 359.676 304 360.676 304.361C358.816 300.033 359.981 294.289 364.143 291.737C361.203 287.353 362.7 280.056 368.611 278.669C365.557 272.927 368.277 263.965 376.767 263.965C379.735 263.965 381.983 265.047 383.537 266.711C384.868 265.963 386.451 265.492 388.336 265.492C389.613 265.492 390.751 265.74 391.777 266.101C392.555 261.328 396.077 257.112 402.32 257.112C415.081 257.112 416.387 274.757 406.371 278.531C406.815 279.64 407.009 280.861 406.981 282.053C407.868 281.776 408.84 281.583 409.921 281.583C411.475 281.583 412.836 281.887 414 282.415C414.527 278.032 417.579 273.981 423.295 273.981C435.807 273.981 435.78 293.401 423.295 293.401Z" fill="#F6F0E3"/>
<path d="M422.68 247.105C411.969 247.105 411.952 263.752 422.68 263.752C433.393 263.752 433.409 247.105 422.68 247.105Z" fill="#F6F0E3"/>
<path d="M446.395 247.276C437.468 247.276 437.453 261.149 446.395 261.149C455.321 261.149 455.336 247.276 446.395 247.276Z" fill="#F6F0E3"/>
<path d="M424.505 300.347C417.364 300.347 417.352 311.444 424.505 311.444C431.645 311.444 431.659 300.347 424.505 300.347Z" fill="#F6F0E3"/>
<path d="M398.383 442.221H317.552C318.399 439.786 319.193 437.329 319.964 434.861C320.416 433.407 320.856 431.941 321.285 430.476C321.507 429.693 321.737 428.922 321.948 428.14C322.157 427.414 322.367 426.675 322.565 425.947C328.392 404.528 331.699 382.017 333.771 358.581C333.881 357.379 333.991 356.179 334.079 354.967C334.299 352.455 334.487 349.921 334.673 347.376H381.26C381.447 349.921 381.633 352.455 381.855 354.967C381.943 356.179 382.053 357.379 382.164 358.581C384.235 382.017 387.54 404.528 393.369 425.947C393.567 426.675 393.777 427.414 393.987 428.14C394.195 428.922 394.427 429.693 394.647 430.476C395.076 431.941 395.517 433.407 395.969 434.861C396.74 437.329 397.533 439.786 398.383 442.221Z" fill="#FBEFCD"/>
<path d="M382.164 358.581H333.771C333.881 357.379 333.991 356.179 334.079 354.967H381.855C381.943 356.179 382.053 357.379 382.164 358.581Z" fill="#FAB939"/>
<path d="M395.969 434.861H319.964C320.416 433.407 320.856 431.941 321.285 430.476H394.647C395.076 431.941 395.517 433.407 395.969 434.861Z" fill="#FAB939"/>
<path d="M393.987 428.14H321.948C322.157 427.414 322.367 426.675 322.565 425.947H393.369C393.567 426.675 393.777 427.414 393.987 428.14Z" fill="#FAB939"/>
<path d="M391.368 435.04H381.381C381.368 434.981 381.353 434.919 381.339 434.861H391.311C391.329 434.92 391.348 434.98 391.368 435.04ZM389.969 430.476H380.335C380.163 429.698 379.992 428.922 379.824 428.14H389.297C389.517 428.921 389.741 429.7 389.969 430.476ZM388.691 425.947H379.36C374.9 404.568 371.972 381.187 369.813 358.581H378.003C379.911 381.316 382.923 404.643 388.691 425.947ZM377.707 354.967H369.475C369.24 352.423 369.015 349.892 368.797 347.376H377.139C377.317 349.895 377.505 352.425 377.707 354.967Z" fill="#F9DDA5"/>
<path d="M378.003 358.581H369.813C369.699 357.373 369.585 356.169 369.475 354.967H377.707C377.803 356.169 377.901 357.375 378.003 358.581Z" fill="#F9AC31"/>
<path d="M391.311 434.861H381.339C380.996 433.41 380.661 431.948 380.334 430.476H389.969C390.401 431.948 390.849 433.41 391.311 434.861Z" fill="#F9AC31"/>
<path d="M389.297 428.14H379.824C379.668 427.41 379.513 426.681 379.36 425.947H388.691C388.891 426.681 389.091 427.409 389.297 428.14Z" fill="#F9AC31"/>
<path d="M374.11 254.583C376.22 261.045 372.862 269.564 364.01 269.564C362.013 269.564 360.321 269.12 358.906 268.399C357.602 272.393 354.245 275.612 348.808 275.612C346.754 275.612 344.978 275.112 343.536 274.308C342.537 277.276 340.012 279.636 335.989 279.636C335.35 279.636 334.769 279.552 334.186 279.44C336.294 285.407 333.687 293.203 326.391 294.505C326.029 298.335 323.394 301.885 318.428 301.885C317.622 301.885 316.874 301.803 316.18 301.608C315.986 304.937 313.793 308.1 309.521 308.1C308.606 308.1 307.774 307.933 307.053 307.656C307.053 308.628 306.857 309.6 306.525 310.515C315.709 314.899 314.07 331.656 301.67 331.656C299.062 331.656 296.925 330.907 295.288 329.687C293.568 331.047 291.348 331.905 288.574 331.905C275.312 331.905 274.369 312.873 285.689 310.099C283.358 307.047 283.857 301.969 287.132 299.777C282.665 294.257 285.078 283.603 294.317 283.603C294.954 283.603 295.539 283.687 296.093 283.768C293.208 276.389 296.87 266.152 307.164 266.152C308.44 266.152 309.577 266.373 310.63 266.652C308.522 259.409 312.324 250.171 322.089 250.171C323.754 250.171 325.197 250.503 326.501 250.976C321.59 241.125 326.306 226.116 340.677 226.116C345.645 226.116 349.446 227.92 352.109 230.639C354.689 226.477 359.184 223.508 365.565 223.508C383.655 223.508 386.485 247.119 374.11 254.583Z" fill="white"/>
<path d="M285.685 256.4C298.181 256.4 298.203 236.98 285.685 236.98C273.188 236.98 273.168 256.4 285.685 256.4Z" fill="white"/>
<path d="M290.4 258.167C283.26 258.167 283.247 269.265 290.4 269.265C297.541 269.265 297.553 258.167 290.4 258.167Z" fill="white"/>
<path d="M312.927 240.684C325.423 240.684 325.444 221.264 312.927 221.264C300.429 221.264 300.409 240.684 312.927 240.684Z" fill="white"/>
<path d="M350.724 279.101C340.012 279.101 339.995 295.749 350.724 295.749C361.435 295.749 361.452 279.101 350.724 279.101Z" fill="white"/>
<path d="M345.097 299.988C332.6 299.988 332.579 319.408 345.097 319.408C357.593 319.408 357.615 299.988 345.097 299.988Z" fill="white"/>
<path d="M372.059 274.393C363.131 274.393 363.117 288.267 372.059 288.267C380.984 288.267 380.999 274.393 372.059 274.393Z" fill="white"/>
<path d="M392.22 252.376C381.508 252.376 381.491 269.023 392.22 269.023C402.931 269.023 402.949 252.376 392.22 252.376Z" fill="white"/>
<path d="M345.053 439.247H247.239C248.267 436.3 249.225 433.325 250.16 430.34C250.707 428.58 251.239 426.807 251.76 425.033C252.025 424.086 252.305 423.153 252.559 422.207C252.812 421.325 253.065 420.433 253.305 419.553C260.359 393.633 264.359 366.393 266.865 338.033C267 336.58 267.132 335.127 267.239 333.659C267.507 330.62 267.732 327.553 267.959 324.473H324.333C324.56 327.553 324.785 330.62 325.053 333.659C325.16 335.127 325.292 336.58 325.427 338.033C327.933 366.393 331.933 393.633 338.987 419.553C339.225 420.433 339.479 421.325 339.732 422.207C339.987 423.153 340.267 424.086 340.532 425.033C341.053 426.807 341.585 428.58 342.132 430.34C343.065 433.325 344.025 436.3 345.053 439.247Z" fill="#FBEFCD"/>
<path d="M325.427 338.033H266.865C267 336.58 267.132 335.127 267.239 333.659H325.053C325.16 335.127 325.292 336.58 325.427 338.033Z" fill="#FAB939"/>
<path d="M342.132 430.34H250.16C250.707 428.58 251.239 426.807 251.76 425.033H340.532C341.053 426.807 341.585 428.58 342.132 430.34Z" fill="#FAB939"/>
<path d="M339.732 422.207H252.559C252.812 421.325 253.065 420.433 253.305 419.553H338.987C339.225 420.433 339.479 421.325 339.732 422.207Z" fill="#FAB939"/>
<path d="M338.045 435.04H325.573C325.184 433.485 324.803 431.919 324.429 430.34H336.495C336.997 431.919 337.513 433.485 338.045 435.04ZM334.872 425.033H323.213C323.005 424.093 322.8 423.153 322.596 422.207H334.059C334.324 423.152 334.596 424.095 334.872 425.033ZM333.325 419.553H322.035C316.636 393.68 313.093 365.389 310.483 338.033H320.391C322.701 365.547 326.344 393.771 333.325 419.553ZM320.033 333.659H310.072C309.788 330.581 309.515 327.519 309.252 324.473H319.345C319.561 327.521 319.791 330.585 320.033 333.659Z" fill="#F9DDA5"/>
<path d="M320.391 338.033H310.483C310.343 336.572 310.205 335.115 310.072 333.659H320.033C320.149 335.115 320.268 336.573 320.391 338.033Z" fill="#F9AC31"/>
<path d="M336.495 430.34H324.429C324.015 428.585 323.609 426.814 323.213 425.033H334.872C335.395 426.814 335.936 428.585 336.495 430.34Z" fill="#F9AC31"/>
<path d="M334.059 422.207H322.596C322.407 421.327 322.219 420.44 322.035 419.553H333.325C333.565 420.441 333.811 421.325 334.059 422.207Z" fill="#F9AC31"/>
<path d="M14.2641 178.169C7.86276 188.121 0.678767 199.561 0.669434 211.981C0.669434 213.052 0.7241 214.129 0.8361 215.212C1.73077 223.725 7.50943 230.019 12.3681 236.309C17.2241 242.58 19.7388 250.431 19.7374 258.327C19.7374 259.788 19.6521 261.251 19.4788 262.704C18.2481 273.085 12.1561 281.321 6.0401 289.651C5.87744 289.873 5.92545 290.187 6.14811 290.351C6.37078 290.513 6.68278 290.465 6.84678 290.243C12.9481 281.921 19.1921 273.54 20.4721 262.823C20.6494 261.329 20.7374 259.828 20.7374 258.327C20.7374 250.22 18.1601 242.156 13.1588 235.697C8.24409 229.361 2.66143 223.2 1.83076 215.109C1.72143 214.061 1.66943 213.019 1.66943 211.981C1.66143 199.963 8.6961 188.652 15.1041 178.711C15.2534 178.479 15.1868 178.169 14.9548 178.02C14.7228 177.869 14.4134 177.937 14.2641 178.169Z" fill="white"/>
<path d="M27.5026 178.169C21.1026 188.121 13.9186 199.561 13.9106 211.981C13.9106 213.052 13.964 214.129 14.076 215.212C14.9693 223.725 20.7493 230.019 25.6093 236.309C30.464 242.58 32.9773 250.431 32.9773 258.327C32.9773 259.788 32.892 261.251 32.7186 262.704C31.488 273.085 25.396 281.321 19.28 289.651C19.116 289.873 19.164 290.187 19.3866 290.351C19.6093 290.513 19.9226 290.465 20.0866 290.243C26.188 281.921 32.432 273.54 33.712 262.823C33.8893 261.329 33.9773 259.827 33.9773 258.327C33.9773 250.22 31.4 242.156 26.4 235.697C21.484 229.361 15.9013 223.2 15.0706 215.109C14.9626 214.061 14.9106 213.019 14.9106 211.981C14.9013 199.963 21.936 188.652 28.344 178.711C28.4933 178.479 28.4266 178.169 28.1946 178.02C27.9613 177.869 27.652 177.937 27.5026 178.169Z" fill="white"/>
<path d="M40.7427 178.169C34.3427 188.121 27.1587 199.561 27.1494 211.981C27.1494 213.052 27.2041 214.129 27.3161 215.212C28.2107 223.725 33.9881 230.019 38.8494 236.309C43.7054 242.58 46.2174 250.431 46.2174 258.328C46.2174 259.788 46.1321 261.251 45.9587 262.704C44.7281 273.085 38.6361 281.321 32.5201 289.651C32.3574 289.873 32.4054 290.187 32.6281 290.351C32.8507 290.513 33.1627 290.465 33.3267 290.243C39.4281 281.921 45.672 273.54 46.952 262.823C47.1294 261.329 47.2174 259.828 47.2174 258.328C47.2174 250.22 44.6401 242.157 39.6401 235.697C34.7241 229.361 29.1414 223.2 28.3107 215.109C28.2014 214.061 28.1494 213.019 28.1494 211.981C28.1414 199.963 35.176 188.652 41.584 178.711C41.7334 178.479 41.6667 178.169 41.4347 178.02C41.2027 177.869 40.8921 177.937 40.7427 178.169Z" fill="white"/>
<path d="M53.9828 178.169C47.5828 188.121 40.3987 199.561 40.3894 211.981C40.3894 213.052 40.4427 214.129 40.5561 215.212C41.4507 223.725 47.2281 230.019 52.0881 236.309C56.9441 242.58 59.4574 250.429 59.4574 258.325C59.4574 259.787 59.3721 261.249 59.1987 262.704C57.9681 273.085 51.8761 281.321 45.7601 289.651C45.5974 289.873 45.6454 290.187 45.8681 290.351C46.0907 290.513 46.4041 290.465 46.5667 290.243C52.6681 281.921 58.9121 273.54 60.1907 262.823C60.3694 261.328 60.4574 259.827 60.4574 258.325C60.4574 250.219 57.8801 242.156 52.8788 235.697C47.9641 229.361 42.3814 223.2 41.5507 215.109C41.4414 214.061 41.3894 213.019 41.3894 211.981C41.3801 199.963 48.4161 188.652 54.8241 178.711C54.9734 178.479 54.9068 178.169 54.6734 178.02C54.4414 177.869 54.1321 177.937 53.9828 178.169Z" fill="white"/>
</svg>
